<svg width="98" height="24" viewBox="0 0 98 24" fill="none" xmlns="http://www.w3.org/2000/svg">
<path d="M10.3168 23L16.4668 0.499998H15.0268L9.89676 19.52L4.82676 0.499998H0.716758L6.80676 23H10.3168ZM26.5932 0.199998C21.3432 0.199998 18.3132 2.93 18.3132 8.63V14.87C18.3132 20.57 21.3432 23.3 26.5932 23.3H26.8932C32.1132 23.3 35.1432 20.57 35.1432 14.87V8.63C35.1432 2.93 32.1132 0.199998 26.8932 0.199998H26.5932ZM31.0632 6.86V16.61C31.0632 20.21 29.7732 22.04 26.7432 22.04C23.7132 22.04 22.3932 20.21 22.3932 16.61V6.86C22.3932 3.29 23.7132 1.46 26.7432 1.46C29.7732 1.46 31.0632 3.29 31.0632 6.86ZM39.5056 4.76L49.5856 23H52.7656V0.499998H51.3556V17.75L41.8156 0.499998H38.0956V23H39.5056V4.76ZM60.046 23V0.499998H56.056V23H60.046ZM67.3395 23V14.54L69.6495 11.57L75.2295 23H79.6695L72.3195 8L78.0495 0.499998H76.3995L67.3395 12.41V0.499998H63.3495V23H67.3395ZM90.6565 14.45H84.5965L87.6265 3.89L90.6565 14.45ZM84.2365 15.74H91.0165L93.1165 23H97.2865L90.8065 0.499998H87.2065L80.7265 23H82.1665L84.2365 15.74Z" fill="#111111"/>
</svg>
