<svg width="103" height="32" viewBox="0 0 103 32" fill="none" xmlns="http://www.w3.org/2000/svg">
<path d="M0.657266 0.359999C0.797266 0.22 0.967266 0.15 1.16727 0.15H16.1673C16.3673 0.15 16.5373 0.22 16.6773 0.359999C16.8173 0.48 16.8873 0.64 16.8873 0.839999V2.13C16.8873 2.33 16.8173 2.49 16.6773 2.61C16.5373 2.75 16.3673 2.82 16.1673 2.82H10.8573C10.6573 2.82 10.4873 2.89 10.3473 3.03C10.2073 3.15 10.1373 3.31 10.1373 3.51V23.25C10.1373 23.33 10.1873 23.42 10.2873 23.52C10.3473 23.58 10.4373 23.6 10.5573 23.58C11.4773 23.38 12.3873 23.23 13.2873 23.13C14.1873 23.05 15.0873 23.01 15.9873 23.01C19.0073 23.01 21.9673 23.36 24.8673 24.06C27.7673 24.76 30.6273 25.62 33.4473 26.64C35.1073 27.18 36.7373 27.65 38.3373 28.05C39.9373 28.45 41.6073 28.72 43.3473 28.86C44.4673 28.92 45.5673 28.92 46.6473 28.86C47.7273 28.78 48.8073 28.63 49.8873 28.41C50.1273 28.35 50.3673 28.28 50.6073 28.2C50.8673 28.14 51.1273 28.07 51.3873 27.99C51.9273 27.79 52.4073 27.57 52.8273 27.33C53.2673 27.09 53.7173 26.83 54.1773 26.55C54.3773 26.39 54.5573 26.23 54.7173 26.07C54.8773 25.93 55.0373 25.76 55.1973 25.56L55.6773 24.96C55.8573 24.66 56.0973 24.6 56.3973 24.78L56.8473 24.99C56.9473 25.03 57.0273 25.14 57.0873 25.32C57.1273 25.44 57.1173 25.58 57.0573 25.74L56.7273 26.4C56.6873 26.5 56.6373 26.59 56.5773 26.67C56.5373 26.75 56.4973 26.82 56.4573 26.88C56.3573 27.02 56.2573 27.16 56.1573 27.3C56.0573 27.44 55.9473 27.57 55.8273 27.69C55.6873 27.87 55.5173 28.05 55.3173 28.23C55.1373 28.41 54.9573 28.57 54.7773 28.71C54.4173 29.03 54.0173 29.31 53.5773 29.55C53.1573 29.79 52.7373 30.01 52.3173 30.21C51.3973 30.59 50.5073 30.88 49.6473 31.08C48.7873 31.28 47.8473 31.43 46.8273 31.53C46.2073 31.57 45.5873 31.59 44.9673 31.59C44.3673 31.61 43.7673 31.6 43.1673 31.56C41.3273 31.46 39.5373 31.2 37.7973 30.78C36.0773 30.38 34.3373 29.9 32.5773 29.34C31.2373 28.86 29.8873 28.41 28.5273 27.99C27.1873 27.59 25.8273 27.23 24.4473 26.91C23.0673 26.59 21.6673 26.34 20.2473 26.16C18.8473 25.98 17.4373 25.89 16.0173 25.89C13.7573 25.89 11.5673 26.17 9.44727 26.73C7.32727 27.29 5.28727 28.12 3.32727 29.22L2.90727 29.46C2.68727 29.58 2.46727 29.61 2.24727 29.55C2.00727 29.49 1.82727 29.36 1.70727 29.16L1.22727 28.32C1.10727 28.08 1.07727 27.86 1.13727 27.66C1.19727 27.46 1.32727 27.29 1.52727 27.15L1.97727 26.91C3.53727 25.95 5.21727 25.17 7.01727 24.57C7.17727 24.51 7.25727 24.4 7.25727 24.24L7.22727 3.51C7.22727 3.31 7.15727 3.14 7.01727 3C6.87727 2.88 6.70727 2.82 6.50727 2.82H1.16727C0.967266 2.82 0.797266 2.75 0.657266 2.61C0.517266 2.49 0.447266 2.33 0.447266 2.13V0.839999C0.447266 0.64 0.517266 0.48 0.657266 0.359999Z" fill="#222222"/>
<path d="M19.4117 0.899999C19.4117 0.699999 19.4817 0.54 19.6217 0.42C19.7617 0.279999 19.9417 0.209999 20.1617 0.209999H25.8617C27.0217 0.209999 28.1317 0.409999 29.1917 0.809999C30.2717 1.19 31.2317 1.73 32.0717 2.43C32.9117 3.13 33.5817 3.98 34.0817 4.98C34.6017 5.96 34.8717 7.05 34.8917 8.25C34.9117 9.71 34.5517 11.05 33.8117 12.27C33.0117 13.49 32.0217 14.47 30.8417 15.21C30.6617 15.29 30.6217 15.41 30.7217 15.57L33.9917 20.34C34.1717 20.58 34.1817 20.82 34.0217 21.06C33.9017 21.3 33.6817 21.42 33.3617 21.42H31.7417C31.4817 21.42 31.2617 21.32 31.0817 21.12L27.9617 16.47C27.8817 16.37 27.7817 16.33 27.6617 16.35C27.3817 16.39 27.1017 16.42 26.8217 16.44C26.5617 16.48 26.2917 16.5 26.0117 16.5H22.5917C22.3917 16.5 22.2917 16.58 22.2917 16.74V20.7C22.2917 20.92 22.2217 21.1 22.0817 21.24C21.9417 21.36 21.7617 21.42 21.5417 21.42H20.1617C19.9617 21.42 19.7817 21.36 19.6217 21.24C19.4817 21.1 19.4117 20.92 19.4117 20.7V0.899999ZM22.2917 3.09V13.59C22.2917 13.75 22.3917 13.83 22.5917 13.83H25.8917C26.6317 13.83 27.3517 13.71 28.0517 13.47C28.7717 13.23 29.4117 12.89 29.9717 12.45C30.5517 11.99 31.0217 11.45 31.3817 10.83C31.7417 10.19 31.9417 9.48 31.9817 8.7C32.0417 7.62 31.8217 6.65 31.3217 5.79C31.0617 5.33 30.7317 4.92 30.3317 4.56C29.9517 4.18 29.5217 3.87 29.0417 3.63C28.5817 3.37 28.0917 3.18 27.5717 3.06C27.0517 2.92 26.5317 2.85 26.0117 2.85H22.5917C22.3917 2.85 22.2917 2.93 22.2917 3.09Z" fill="#222222"/>
<path d="M37.8687 0.869999C37.8687 0.67 37.9387 0.509999 38.0787 0.389998C38.2187 0.249999 38.3987 0.179999 38.6187 0.179999H40.0287C40.2287 0.179999 40.3987 0.249999 40.5387 0.389998C40.6787 0.509999 40.7487 0.67 40.7487 0.869999V20.76C40.7487 20.94 40.6787 21.1 40.5387 21.24C40.3987 21.36 40.2287 21.42 40.0287 21.42H38.6187C38.4187 21.42 38.2387 21.36 38.0787 21.24C37.9387 21.1 37.8687 20.94 37.8687 20.76V0.869999Z" fill="#222222"/>
<path d="M44.9049 0.389998C45.0449 0.249999 45.2249 0.179999 45.4449 0.179999H46.8549C47.0549 0.179999 47.2249 0.249999 47.3649 0.389998C47.5049 0.509999 47.5749 0.67 47.5749 0.869999V9.72C47.5749 9.86 47.6449 9.94 47.7849 9.96C47.9049 10.02 48.0149 10 48.1149 9.9L56.8449 0.42C56.9649 0.26 57.1549 0.179999 57.4149 0.179999H59.2149C59.5549 0.179999 59.7849 0.309999 59.9049 0.57C60.0449 0.829999 60.0049 1.07 59.7849 1.29L51.9849 9.84C51.7249 10.1 51.7249 10.4 51.9849 10.74L60.6849 20.31C60.9049 20.53 60.9449 20.77 60.8049 21.03C60.6849 21.29 60.4549 21.42 60.1149 21.42H58.3149C58.0349 21.42 57.8449 21.34 57.7449 21.18L50.2449 12.96C50.0849 12.8 49.8949 12.72 49.6749 12.72C49.4149 12.72 49.2249 12.8 49.1049 12.96L47.7549 14.4C47.6349 14.52 47.5749 14.67 47.5749 14.85V20.76C47.5749 20.94 47.5049 21.1 47.3649 21.24C47.2249 21.36 47.0549 21.42 46.8549 21.42H45.4449C45.2449 21.42 45.0649 21.36 44.9049 21.24C44.7649 21.1 44.6949 20.94 44.6949 20.76V0.869999C44.6949 0.67 44.7649 0.509999 44.9049 0.389998Z" fill="#222222"/>
<path d="M71.4622 0C72.9622 0 74.3522 0.3 75.6322 0.899999C76.9322 1.48 78.0422 2.27 78.9622 3.27C79.9022 4.27 80.6322 5.43 81.1522 6.75C81.6922 8.05 81.9622 9.43 81.9622 10.89C81.9622 12.37 81.6922 13.77 81.1522 15.09C80.6122 16.39 79.8722 17.53 78.9322 18.51C77.9922 19.51 76.8822 20.3 75.6022 20.88C74.3222 21.46 72.9422 21.75 71.4622 21.75C69.9622 21.75 68.5622 21.45 67.2622 20.85C65.9822 20.27 64.8722 19.48 63.9322 18.48C62.9922 17.5 62.2522 16.36 61.7122 15.06C61.1722 13.74 60.9022 12.35 60.9022 10.89C60.9022 9.41 61.1722 8.01 61.7122 6.69C62.2522 5.37 62.9922 4.22 63.9322 3.24C64.8922 2.24 66.0122 1.45 67.2922 0.869999C68.5922 0.29 69.9822 0 71.4622 0ZM63.7822 10.89C63.7822 11.97 63.9722 13.01 64.3522 14.01C64.7522 14.99 65.2922 15.85 65.9722 16.59C66.6522 17.35 67.4622 17.95 68.4022 18.39C69.3422 18.85 70.3622 19.08 71.4622 19.08C72.5622 19.08 73.5722 18.85 74.4922 18.39C75.4322 17.93 76.2422 17.32 76.9222 16.56C77.6022 15.8 78.1322 14.93 78.5122 13.95C78.8922 12.97 79.0822 11.95 79.0822 10.89C79.0822 9.81 78.8922 8.78 78.5122 7.8C78.1322 6.8 77.6022 5.92 76.9222 5.16C76.2422 4.4 75.4322 3.8 74.4922 3.36C73.5722 2.9 72.5622 2.67 71.4622 2.67C70.3422 2.67 69.3122 2.9 68.3722 3.36C67.4322 3.8 66.6222 4.4 65.9422 5.16C65.2622 5.92 64.7322 6.8 64.3522 7.8C63.9722 8.78 63.7822 9.81 63.7822 10.89Z" fill="#222222"/>
<path d="M84.9195 0.869999C84.9195 0.67 84.9895 0.509999 85.1295 0.389998C85.2695 0.249999 85.4495 0.179999 85.6695 0.179999H86.3295C86.5495 0.179999 86.7395 0.26 86.8995 0.42L99.5295 15.39C99.6295 15.47 99.7195 15.5 99.7995 15.48C99.9195 15.42 99.9795 15.34 99.9795 15.24V0.869999C99.9795 0.65 100.06 0.49 100.22 0.389998C100.36 0.249999 100.53 0.179999 100.73 0.179999H102.14C102.36 0.179999 102.54 0.249999 102.68 0.389998C102.82 0.509999 102.89 0.67 102.89 0.869999V20.76C102.89 20.94 102.82 21.1 102.68 21.24C102.54 21.36 102.36 21.42 102.14 21.42H101.33C101.09 21.42 100.9 21.34 100.76 21.18L88.2795 6.36C88.1795 6.3 88.0795 6.29 87.9795 6.33C87.8595 6.35 87.7995 6.41 87.7995 6.51V20.76C87.7995 20.94 87.7295 21.1 87.5895 21.24C87.4495 21.36 87.2795 21.42 87.0795 21.42H85.6695C85.4695 21.42 85.2895 21.36 85.1295 21.24C84.9895 21.1 84.9195 20.94 84.9195 20.76V0.869999Z" fill="#222222"/>
</svg>
