<svg width="97" height="24" viewBox="0 0 97 24" fill="none" xmlns="http://www.w3.org/2000/svg">
<path d="M10.1391 23L16.2891 0.499997H14.8491L9.71906 19.52L4.64906 0.499997H0.539062L6.62906 23H10.1391Z" fill="white"/>
<path d="M25.6537 0.199997C20.4037 0.199997 17.3737 2.93 17.3737 8.63V14.87C17.3737 20.57 20.4037 23.3 25.6537 23.3H25.9537C31.1737 23.3 34.2038 20.57 34.2038 14.87V8.63C34.2038 2.93 31.1737 0.199997 25.9537 0.199997H25.6537ZM30.1237 6.86V16.61C30.1237 20.21 28.8337 22.04 25.8037 22.04C22.7737 22.04 21.4537 20.21 21.4537 16.61V6.86C21.4537 3.29 22.7737 1.46 25.8037 1.46C28.8337 1.46 30.1237 3.29 30.1237 6.86Z" fill="white"/>
<path d="M38.5662 4.76L48.6462 23H51.8262V0.499997H50.4162V17.75L40.8762 0.499997H37.1562V23H38.5662V4.76Z" fill="white"/>
<path d="M59.1066 23V0.499997H55.1166V23H59.1066Z" fill="white"/>
<path d="M66.1901 6.86C66.1901 3.29 67.4801 1.46 70.2101 1.46C72.9401 1.46 74.1101 3.02 74.1101 6.41V8.39H77.9801V6.62C77.9801 2.54 75.1601 0.199997 70.3601 0.199997H70.0601C65.1401 0.199997 62.1101 2.93 62.1101 8.63V14.87C62.1101 20.57 65.1401 23.3 70.0601 23.3H70.3601C75.1601 23.3 77.9801 20.96 77.9801 16.85V14.96H74.1101V17.06C74.1101 20.45 72.9401 22.04 70.2101 22.04C67.4801 22.04 66.1901 20.21 66.1901 16.61V6.86Z" fill="white"/>
<path d="M89.7464 14.45H83.6864L86.7164 3.89L89.7464 14.45ZM83.3264 15.74H90.1064L92.2064 23H96.3764L89.8964 0.499997H86.2964L79.8164 23H81.2564L83.3264 15.74Z" fill="white"/>
</svg>
